<?xml version="1.0" encoding="UTF-8"?>
<svg width="120px" height="212px" viewBox="0 0 120 212" version="1.1" xmlns="http://www.w3.org/2000/svg" xmlns:xlink="http://www.w3.org/1999/xlink">
    <!-- Generator: sketchtool 61.2 (101010) - https://sketch.com -->
    <title>502923DB-102B-406F-9BE2-B73A9183AF0B</title>
    <desc>Created with sketchtool.</desc>
    <g id="Page-1" stroke="none" stroke-width="1" fill="none" fill-rule="evenodd">
        <g id="01-company-type-default" transform="translate(-380.000000, -769.000000)">
            <g id="sidebar">
                <g id="company-sign-board" transform="translate(345.000000, 722.000000)">
                    <g transform="translate(35.000000, 47.000000)">
                        <polygon id="Fill-9" fill="#183E7E" opacity="0.5" transform="translate(115.917601, 153.690268) scale(-1, -1) rotate(-27.000000) translate(-115.917601, -153.690268) " points="31.7626222 137.583589 76.8355978 172.218458 134.657836 172.218458 116.765143 157.293329 200.07258 153.770103 198.50118 151.586387 197.854613 146.22237 110.733292 151.084722 92.6042206 135.162079"></polygon>
                        <polygon id="Fill-1" fill="#FFFFFF" points="32.0667218 83.2464012 32.0667218 201.182403 26.1627217 197.774403 26.1627217 79.8384012"></polygon>
                        <polygon id="Fill-2" fill="#F9FAFB" points="49.720962 194.564483 45.640962 196.916483 44.0569619 197.828483 32.0729618 204.756483 20.0569616 197.828483 14.4249615 194.564483 26.1689617 187.780483 26.1689617 197.780483 32.0729618 201.188483 37.9769618 197.780483 37.9769618 187.796483"></polygon>
                        <polygon id="Fill-3" fill="#FFFFFF" points="14.4112015 194.568003 14.4112015 201.368003 20.2816016 204.760003 32.0576018 211.560003 32.0736018 211.544003 32.0736018 204.760003 20.0592016 197.832003 14.4272015 194.568003"></polygon>
                        <polygon id="Fill-4" fill="#C3C6D0" points="49.717122 194.565123 45.648322 196.912323 44.0611219 197.829123 32.0675218 204.755523 32.0675218 211.547523 49.729922 201.366723 49.729922 194.565123"></polygon>
                        <polygon id="Fill-5" fill="#C3C6D0" points="37.9707218 79.8385612 37.9707218 197.774563 32.0667218 201.182563 32.0667218 83.2465612"></polygon>
                        <polygon id="Fill-6" fill="#FFFFFF" points="53.8928021 36.3192005 53.8928021 98.0152015 33.0768018 85.9992013 21.2688016 79.1832012 0.452801288 67.167201 0.452801288 5.47120008 9.90880143 10.9272002"></polygon>
                        <polygon id="Fill-7" fill="#C3C6D0" points="53.8931221 36.3192005 53.8931221 98.0152015 63.3475222 92.5448014 63.3475222 30.8472005"></polygon>
                        <polygon id="Fill-8" fill="#F9F9FB" points="9.92416143 -0.000480000007 9.90816143 0.0155200002 0.452161288 5.47152008 9.90816143 10.9275202 53.8937621 36.3195205 63.3481622 30.8475205"></polygon>
                    </g>
                </g>
            </g>
        </g>
    </g>
</svg>